<svg width="100" height="100" viewBox="0 0 100 100" fill="none" xmlns="http://www.w3.org/2000/svg">
<path fill-rule="evenodd" clip-rule="evenodd" d="M69.6762 0.779477C68.6878 1.17586 67.5218 2.52372 67.0851 3.77463L66.2916 6.04893L64.3704 4.12879C62.1134 1.87481 62.59 1.77786 49.298 7.19665C38.7395 11.5006 37.129 12.9852 38.871 16.806C40.1857 19.687 40.0026 19.9809 38.0188 18.1781C34.0206 14.5442 32.3975 15.2971 22.7539 25.2551C15.1801 33.0772 14.3944 34.7526 16.7359 38.0918C17.9215 39.7836 17.9011 39.8071 15.9017 39.0479C11.826 37.4992 10.7735 38.847 4.93546 53.0871C1.06798 62.5221 1.08363 63.7988 5.09667 65.8995L7.15484 66.9769L4.37279 67.4983C2.84285 67.7853 1.19397 68.4975 0.708775 69.0807C0.116366 69.7953 -0.101972 74.1923 0.0435865 82.5241C0.258794 94.8534 0.268185 94.9112 2.21601 95.8948C3.70134 96.6445 12.3026 96.8853 37.9233 96.8939C65.8713 96.9033 71.8299 97.0933 72.5819 97.9994C74.9602 100.862 87.6324 100.583 90.3276 97.6077C91.0671 96.7915 92.1377 96.1238 92.7066 96.1238C93.2755 96.1238 94.3422 95.156 95.0778 93.9738C95.8126 92.7917 97.0976 91.0498 97.9334 90.1046C98.7692 89.1586 99.2536 87.8655 99.0094 87.2299C98.7653 86.5942 98.9766 84.9853 99.4798 83.6554C100.186 81.7845 100.175 80.8878 99.4328 79.6994C98.9046 78.8543 98.4726 77.3219 98.4726 76.2938C98.4726 75.2657 97.9443 73.9866 97.2987 73.4511C96.2876 72.613 96.1249 67.7086 96.1249 38.1379V3.79808L94.2036 1.8795C92.3513 0.0281485 91.9138 -0.0383062 81.8781 0.00938471C76.1559 0.0367484 70.6646 0.383876 69.6762 0.779477ZM93.7779 3.87079C94.9627 6.08333 94.4666 20.4532 93.1902 20.8753C92.4616 21.1169 92.1705 19.3367 92.0492 13.9023L91.8872 6.60559L91.629 13.8585L91.3699 21.1107L79.8567 20.8949L68.3435 20.6783L68.1205 13.57C67.9976 9.66094 68.2527 5.52668 68.6878 4.38366L69.4782 2.30559H81.209C92.1423 2.30559 92.9961 2.41191 93.7779 3.87079ZM64.843 7.97377C65.6734 9.80088 66.3511 12.7038 66.3495 14.4238L66.3464 17.5511L64.7883 14.4238C63.1949 11.2238 63.3092 11.8664 65.3908 17.8083C66.0607 19.7222 66.2798 21.4805 65.8948 21.8542C65.52 22.2185 60.9223 24.2731 55.6783 26.42L46.1434 30.3244L43.341 23.6359C39.393 14.2135 39.2865 13.5724 41.4715 12.3887C46.1395 9.86108 59.1796 4.77535 61.143 4.71672C62.986 4.66121 63.5721 5.17721 64.843 7.97377ZM39.2811 21.8174C41.2766 23.9495 42.9098 26.0314 42.9098 26.4442C42.9098 26.8578 43.1368 27.8406 43.4146 28.6279C43.6924 29.4159 42.2838 28.4918 40.2843 26.5748C38.2848 24.6578 36.6493 23.3045 36.6493 23.5671C36.6493 23.8298 38.4977 25.8305 40.7578 28.0134L44.8663 31.9811L36.8762 39.9752L28.8869 47.9693L22.9855 41.997C19.7402 38.7125 17.0849 35.4226 17.0849 34.687C17.0849 32.777 32.1416 17.942 34.0801 17.942C34.9558 17.942 37.2612 19.6596 39.2811 21.8174ZM66.3871 34.6549V45.1125L60.3871 47.5541C57.087 48.8973 54.3041 49.9082 54.2024 49.8003C54.1007 49.6932 52.4181 45.6215 50.4625 40.7531L46.9065 31.8998L49.4083 30.86C50.7841 30.2877 54.9028 28.5661 58.5613 27.0353C62.2199 25.5037 65.4777 24.2387 65.8001 24.2239C66.1225 24.209 66.3871 28.9031 66.3871 34.6549ZM49.4819 42.9359C51.4626 47.6526 53.0833 52.0277 53.0833 52.6578C53.0833 53.6758 44.9383 62.5056 43.9992 62.5056C43.7934 62.5056 40.5887 59.4925 36.877 55.8094L30.1296 49.1131L37.4827 41.7366C41.5263 37.6798 45.0705 34.3602 45.3585 34.3602C45.6457 34.3602 47.5012 38.2192 49.4819 42.9359ZM24.4998 46.1414L27.6497 49.339L24.6195 48.1045C19.8701 46.1688 20.1416 46.7708 25.0586 49.0795L29.5106 51.1693L25.5406 60.7465C22.7163 67.5585 21.2052 70.3051 20.306 70.2597C19.6103 70.2238 15.6958 68.7234 11.6069 66.9253C5.8722 64.4023 4.11688 63.2703 3.93063 61.9724C3.65751 60.0656 10.3117 43.2745 12.1477 41.2378C13.2769 39.9853 13.586 39.9963 17.3486 41.4247C19.5923 42.2761 22.7327 44.3479 24.4998 46.1414ZM91.5953 52.1465L91.762 60.5511L92.014 52.0902C92.1909 46.1633 92.5352 43.7193 93.1644 43.9288C93.7474 44.1227 94.1731 47.4376 94.3774 53.367L94.6912 62.5056H81.2059H67.7206L68.223 56.0556C68.4992 52.5085 68.7277 48.2867 68.7301 46.6738L68.7348 43.742H80.0821H91.4294L91.5953 52.1465ZM17.8675 46.0874C18.5131 46.5042 19.3935 46.845 19.8239 46.845C20.2543 46.845 20.0783 46.5042 19.4326 46.0874C18.787 45.6707 17.9066 45.3299 17.4762 45.3299C17.0458 45.3299 17.2219 45.6707 17.8675 46.0874ZM38.9571 60.5112L46.3211 67.8986L44.1001 73.4112C42.8778 76.4431 41.5411 78.9238 41.1287 78.9238C39.7154 78.9238 23.3455 71.7413 23.3455 71.1213C23.3455 69.9556 30.5906 53.1238 31.0922 53.1238C31.3677 53.1238 34.9072 56.4481 38.9571 60.5112ZM58.6028 65.1849L62.3005 74.1235L60.4559 75.8544L58.6114 77.5861L52.3258 71.1791C48.8684 67.6547 46.0401 64.5368 46.0401 64.2499C46.0401 63.429 54.1218 55.4646 54.535 55.8774C54.7385 56.0807 56.5689 60.2689 58.6028 65.1849ZM94.0424 78.8152C93.9579 88.387 93.6183 93.4672 93.0212 94.0606C91.7745 95.3014 70.537 95.109 69.2701 93.8456C68.3106 92.8895 67.4248 67.3521 68.2738 65.1411C68.6229 64.2319 71.0089 64.0693 81.4344 64.2452L94.1684 64.4602L94.0424 78.8152ZM15.8899 70.4442C18.1852 71.4825 18.1484 71.5028 13.1509 71.9477L8.08531 72.3996L14.954 72.534L21.8234 72.6693L21.6058 83.8102L21.3891 94.9511L13.4874 95.1724C9.14101 95.2943 4.64199 95.0356 3.48926 94.5977L1.39274 93.8018L1.60873 81.9018L1.82472 70.0017L3.78116 69.4138C6.4646 68.6069 13.0695 69.1691 15.8899 70.4442ZM66.3362 74.4284L66.2853 79.3147L64.6404 75.1414C63.2497 71.6146 63.1668 70.8602 64.1043 70.2675C66.1186 68.9932 66.3878 69.4951 66.3362 74.4284ZM34.2014 78.2264L43.6924 82.2208V88.3901V94.5602H33.519H23.3455V84.3966C23.3455 78.8066 23.6523 74.2329 24.0279 74.2329C24.4028 74.2329 28.9808 76.0303 34.2014 78.2264ZM66.3659 84.6921C66.355 85.1745 64.9323 84.0291 63.2059 82.1465C60.1836 78.8519 60.1171 78.6658 61.4341 77.2124C62.7661 75.7426 62.8514 75.8106 64.595 79.7588C65.5802 81.9893 66.3777 84.2097 66.3659 84.6921ZM78.6476 79.7565C76.0088 83.5201 80.8428 87.2158 83.7359 83.646C85.485 81.4874 85.5116 80.9409 83.9394 79.3702C82.2381 77.6714 79.9952 77.8348 78.6476 79.7565ZM98.4475 81.951C98.4264 83.0206 98.2394 82.9815 97.2737 81.7063C95.7782 79.7307 95.7938 78.4579 97.2987 79.7056C97.9443 80.2412 98.4616 81.2513 98.4475 81.951ZM83.3439 80.9394C83.6045 81.6172 83.2414 82.7485 82.537 83.4521C81.3507 84.6366 81.1613 84.6366 79.9749 83.4521C78.3753 81.8533 79.1094 79.7056 81.256 79.7056C82.1442 79.7056 83.0833 80.2607 83.3439 80.9394ZM54.301 86.5841C61.1845 89.505 61.3042 89.6019 61.5429 92.4477L61.7863 95.342L56.4562 95.3334C53.5255 95.3287 49.8067 95.1067 48.1922 94.8401L45.2576 94.3554V88.9851C45.2576 85.0869 45.5377 83.6147 46.2796 83.6147C46.8423 83.6147 50.4515 84.9509 54.301 86.5841ZM64.1919 85.7155C67.4803 88.8631 67.0796 90.0155 63.2239 88.5019C61.0914 87.6654 60.1985 86.9007 60.4849 86.1557C60.7181 85.5474 60.909 84.7273 60.909 84.3325C60.909 83.1089 61.9092 83.5303 64.1919 85.7155ZM96.6672 88.0953C96.4684 88.8561 96.2931 88.4229 96.2775 87.1329C96.2618 85.8429 96.4238 85.2206 96.6382 85.7499C96.8527 86.2792 96.866 87.3346 96.6672 88.0953ZM67.1696 93.8058C67.1696 94.8206 66.6383 95.342 65.6045 95.342C64.3829 95.342 64.0393 94.8205 64.0393 92.9692C64.0393 90.8387 64.199 90.6816 65.6045 91.4329C66.4653 91.8934 67.1696 92.9614 67.1696 93.8058ZM77.5536 97.4185C77.0238 97.6328 75.9673 97.646 75.2059 97.4475C74.4444 97.2489 74.878 97.0738 76.1692 97.0581C77.4605 97.0425 78.0834 97.2043 77.5536 97.4185ZM83.2586 98.1034C81.5236 99.4137 80.4734 99.5764 80.4734 98.5342C80.4734 97.7266 81.8515 97.0472 83.6037 96.9924C84.4786 96.9651 84.3902 97.2481 83.2586 98.1034Z" fill="black"/>
</svg>
