<svg width="102" height="102" viewBox="0 0 102 102" fill="none" xmlns="http://www.w3.org/2000/svg">
<path d="M20.7869 6.45451C58.2399 1.23234 121.91 -2.85588 76.9664 22.5687C20.7869 54.3493 -15.4905 50.9923 24.3139 34.4305C63.1104 11.3783 120.046 63.7493 73.9433 14.9593C27.8408 -33.8308 50.766 61.5112 62.3547 54.3494C73.9433 47.1875 67.897 21.002 83.0126 47.8589C98.1282 74.7158 114.503 76.2825 83.0126 72.0301C51.5218 67.7778 -27.583 81.4995 11.7175 60.616C51.018 39.7324 42.2006 42.7114 44.216 60.616C46.2315 78.5206 38.6737 107.839 56.3085 99.5585C70.4163 92.9338 62.1868 85.1602 56.3085 82.1015C45.8956 79.7888 26.9843 78.0729 34.6428 89.7109C44.216 104.258 99.3877 58.3779 83.0126 89.7109" stroke="black" stroke-width="2"/>
</svg>
