<svg width="100" height="100" viewBox="0 0 100 100" fill="none" xmlns="http://www.w3.org/2000/svg">
<path fill-rule="evenodd" clip-rule="evenodd" d="M90.0164 0.288829C86.8038 0.996126 84.6982 2.41935 83.9114 4.41631C83.6654 5.04069 83.5036 5.10886 82.5343 4.9945C81.0626 4.82115 79.6148 5.68009 79.3674 6.87348C79.2304 7.53487 78.9425 7.83565 78.1488 8.14645C73.7686 9.86238 69.4145 11.7294 64.8811 13.836C61.9622 15.1924 59.4782 16.3023 59.3614 16.3023C59.2446 16.3023 59.0588 15.833 58.9484 15.2589C58.6412 13.6601 57.3319 11.5611 56.1079 10.7049C53.9423 9.19042 52.5501 8.9286 46.6834 8.93193C41.8022 8.935 41.2087 8.98925 39.7107 9.57051C37.6252 10.3796 35.9312 12.0135 35.0899 14.0271C34.4335 15.5981 34.4294 15.6933 34.3406 31.2499L34.2512 46.8934L31.7433 45.3321C29.6365 44.0208 15.1188 35.135 12.3268 33.448C11.7142 33.0777 10.7077 32.8838 8.87948 32.783C6.668 32.6615 6.21492 32.7126 5.72521 33.1403C4.91306 33.8496 5.00593 34.5265 6.23453 36.8579C7.31546 38.9083 7.31979 38.9122 11.4982 41.6134C13.7982 43.1003 19.5086 46.7323 24.1879 49.6842C28.8673 52.6361 32.7256 55.074 32.7619 55.1016C32.7982 55.1294 30.1337 57.7736 26.8407 60.9778C23.5477 64.1821 19.5363 68.2509 17.9261 70.0194C15.092 73.1327 14.9659 73.2314 13.9718 73.1196C13.0959 73.0208 12.7908 73.1527 11.8953 74.0166C10.917 74.9604 10.8576 75.114 11.022 76.2729L11.1988 77.5161H8.89274C6.69136 77.5161 6.54081 77.557 5.57379 78.4204C4.85048 79.0659 4.28117 80.0412 3.58381 81.8289C3.04651 83.2062 2.01431 85.7104 1.29013 87.3938C-0.204663 90.8682 -0.354633 92.0176 0.603156 92.6646C0.955585 92.9027 1.50701 93.092 1.82887 93.085C2.15044 93.078 5.19887 91.9823 8.60319 90.6504C16.0204 87.7483 16.1126 87.6684 16.1126 84.1673V81.997L16.9539 82.2799C18.6385 82.8464 20.5965 81.1469 20.5154 79.1881C20.4753 78.2187 20.6259 78.0284 22.9792 76.0731C24.3578 74.9279 27.4455 72.1596 29.8409 69.9214L34.1961 65.8518L34.398 79.2663C34.6319 94.8165 34.6752 95.1323 36.8595 97.2898C38.6482 99.0567 40.6483 99.7434 44.6265 99.9574C47.7448 100.125 51.8228 99.7848 53.9019 99.1838C55.38 98.7567 57.213 97.2386 57.9626 95.821C58.2862 95.2088 58.7292 93.8861 58.9472 92.881C59.3077 91.2185 59.5093 90.8891 61.1858 89.2238C63.1744 87.2485 77.1533 72.9159 88.4798 61.2388C92.3392 57.2599 95.6924 53.6116 95.931 53.1311C96.7665 51.4505 96.3056 50.5882 92.8912 47.4415C91.191 45.8744 89.4104 44.363 88.9346 44.0825C87.5696 43.2776 86.1806 43.415 84.9661 44.4746C84.396 44.9718 78.5128 50.9507 71.8922 57.7608C65.2719 64.5708 59.7467 70.1844 59.614 70.2353C59.4816 70.2865 59.3732 61.866 59.3732 51.5234C59.3732 36.676 59.449 32.7188 59.7334 32.7188C59.9313 32.7188 62.9488 33.526 66.4388 34.5123C69.9285 35.4987 75.4445 37.0538 78.6962 37.9684L84.6085 39.6309L91.11 39.7225C96.9329 39.8045 97.6922 39.7628 98.3876 39.3235C99.3765 38.6988 99.664 37.6498 99.0818 36.7925C98.8383 36.4339 96.1484 34.5346 93.1043 32.5719L87.5696 29.0034L79.8885 26.6784C75.6637 25.3995 70.7406 23.9104 68.9482 23.3686L65.6892 22.3842L72.1206 19.2506C75.6579 17.5272 79.4037 15.6112 80.4445 14.9927C82.1242 13.9946 82.3979 13.9111 82.879 14.2506C84.1009 15.1126 86.4595 14.3507 86.9221 12.9445C87.0568 12.5346 87.2624 12.4314 87.6855 12.5611C89.8428 13.2216 93.2998 12.2113 95.2192 10.3596C98.3974 7.29335 100.918 2.03704 99.6776 1.06179C98.4703 0.112979 92.8563 -0.336108 90.0164 0.288829ZM92.5967 1.67922C90.907 2.28468 87.6368 4.14474 87.6368 4.50034C87.6368 4.58631 88.3393 4.26911 89.1982 3.79499C90.057 3.32086 91.5089 2.68451 92.4245 2.38039C94.0333 1.84644 98.0193 1.31305 98.0193 1.63192C98.0193 1.71761 95.8453 2.9302 93.1885 4.32588C88.1138 6.99201 87.1473 7.57549 87.4008 7.82007C87.4859 7.90215 90.0443 6.77665 93.0864 5.31893C96.1285 3.86121 98.6777 2.66838 98.751 2.66838C99.5351 2.66838 97.1157 5.34314 95.1419 6.6584C94.4243 7.13642 93.0587 7.93387 92.107 8.43054C91.1553 8.9272 90.5231 9.3365 90.7019 9.33984C91.2536 9.35069 93.1594 8.50177 94.6879 7.56464C97.0909 6.09106 96.9686 6.13641 96.5614 6.8707C95.8938 8.07411 93.2719 10.5338 92.107 11.0494C90.821 11.6187 88.5974 11.7291 87.5644 11.2748C86.6867 10.8891 84.7524 7.24327 84.7539 5.97754C84.7568 3.273 88.3984 1.04231 92.828 1.03174L94.4142 1.02785L92.5967 1.67922ZM83.9977 9.34012C85.0524 11.2959 85.3338 12.06 85.1204 12.3872C84.4459 13.4206 83.927 13.0282 82.6021 10.4829C81.8814 9.0986 81.2919 7.80087 81.2919 7.59887C81.2919 7.1214 81.9073 6.53263 82.2903 6.64337C82.455 6.69123 83.2233 7.90466 83.9977 9.34012ZM80.7191 10.7458C81.308 11.959 81.3435 12.1966 80.9847 12.5327C80.3805 13.0989 75.0185 15.9298 68.7463 18.9944L63.2666 21.6716L59.9933 20.7426C57.0608 19.9103 56.7755 19.774 57.2534 19.4343C59.0704 18.1429 78.5846 9.44975 79.8726 9.3582C79.9646 9.35153 80.3453 9.97591 80.7191 10.7458ZM49.9545 11.1687C50.7225 11.4292 51.7798 12.0558 52.3038 12.5614C54.3103 14.4971 54.2004 11.9178 54.1147 54.995C54.0412 92.0032 54.0132 93.8546 53.5033 95.1223C53.2094 95.8532 52.6018 96.8054 52.153 97.2384C51.3784 97.986 51.1736 98.033 48.1006 98.1735C41.0391 98.4966 37.9093 97.3018 36.6819 93.8145C36.2213 92.5054 36.1838 89.5955 36.1708 54.0045L36.1567 15.6067L36.8858 14.2397C38.3944 11.4119 40.8715 10.3794 45.674 10.5769C47.3355 10.6454 49.1501 10.8963 49.9545 11.1687ZM55.1339 12.1557C56.3724 13.1404 57.2583 14.6504 57.5185 16.22C57.6803 17.1972 57.6237 17.3344 56.9356 17.6368C55.9121 18.0867 55.9124 18.087 55.9124 17.1618C55.9124 15.9963 54.9427 13.1596 54.2007 12.1543C53.3908 11.0569 53.7531 11.0574 55.1339 12.1557ZM39.4425 16.1243C38.074 16.7787 38.6087 18.8761 40.1439 18.8761C41.1816 18.8761 41.7806 18.3416 41.7806 17.4153C41.7806 16.2208 40.6016 15.5697 39.4425 16.1243ZM46.924 16.134C46.4141 16.3794 46.2508 16.6902 46.2508 17.4153C46.2508 18.1404 46.4141 18.4512 46.924 18.6966C48.3469 19.3811 49.7143 18.141 49.0613 16.7584C48.6812 15.9534 47.8218 15.7025 46.924 16.134ZM40.7712 17.4153C40.7712 17.8497 40.5848 18.1379 40.2656 18.1972C39.6945 18.3032 39.3234 17.6371 39.5858 16.9774C39.861 16.2859 40.7712 16.6221 40.7712 17.4153ZM48.2697 17.4153C48.2697 17.8497 48.0833 18.1379 47.7641 18.1972C47.193 18.3032 46.8219 17.6371 47.0843 16.9774C47.3595 16.2859 48.2697 16.6221 48.2697 17.4153ZM68.5182 25.0882C80.2349 28.2958 85.836 29.8885 86.2885 30.1406C86.4194 30.2137 86.2717 30.5418 85.9605 30.8698C84.9035 31.9842 84.1018 33.9236 83.9518 35.7285L83.8042 37.5023L82.9084 37.3307C82.1435 37.1838 73.1024 34.5173 59.8058 30.5167L56.345 29.4755L56.2648 25.6714C56.2146 23.3013 56.2919 21.8672 56.4693 21.8672C56.6259 21.8672 62.0479 23.3166 68.5182 25.0882ZM90.4487 32.655C91.9158 33.632 93.1164 34.4812 93.1164 34.5421C93.1164 34.603 92.8574 35.063 92.5408 35.5641C92.2241 36.0652 91.9645 36.8716 91.964 37.3565L91.9628 38.238L88.5741 38.0872C86.7104 38.0043 85.0656 37.8304 84.9197 37.7007C84.5168 37.3432 84.6645 34.9614 85.1755 33.5727C85.7572 31.9914 86.9884 30.4191 87.4392 30.6806C87.6272 30.7897 88.9816 31.6781 90.4487 32.655ZM57.378 31.884C57.5364 31.884 57.6428 40.0271 57.6428 52.1475V72.4106L56.9218 73.0642L56.2008 73.7178V52.6319C56.2008 33.519 56.2434 31.5621 56.657 31.7151C56.9079 31.8081 57.2324 31.884 57.378 31.884ZM9.50733 36.5446C10.3431 38.9503 10.1799 39.4712 8.98474 38.2141C8.34131 37.5374 6.88372 34.8774 6.88372 34.3799C6.88372 34.2043 7.27163 34.1117 7.79652 34.162C8.66462 34.2449 8.74883 34.3624 9.50733 36.5446ZM11.4751 34.9995C12.4874 35.5613 12.6587 35.8471 13.6035 38.543C14.1685 40.1557 14.5821 41.5224 14.5227 41.58C14.463 41.6376 13.6722 41.201 12.7654 40.6101C11.2545 39.6253 11.0483 39.3616 10.2955 37.4489C9.05511 34.2978 9.07098 34.3882 9.76315 34.3882C10.0994 34.3882 10.8697 34.6631 11.4751 34.9995ZM95.71 36.0563C96.6433 36.6676 97.4964 37.3079 97.6057 37.4787C97.938 37.9973 97.1042 38.275 95.2013 38.2795C93.5447 38.2834 93.3644 38.2244 93.0605 37.5808C92.7937 37.016 92.8225 36.6876 93.2061 35.9113C93.4689 35.3796 93.7581 34.9447 93.8487 34.9447C93.9392 34.9447 94.7768 35.445 95.71 36.0563ZM17.2089 38.6518C17.6334 39.1729 19.3857 44.1226 19.2066 44.2951C19.1178 44.3808 18.3068 43.9712 17.4047 43.3847C15.8583 42.3794 15.6999 42.1666 14.6409 39.6749C12.9739 35.7525 12.9474 35.9077 15.0652 37.1888C16.0974 37.8131 17.0621 38.4715 17.2089 38.6518ZM23.1932 44.4846C23.4646 45.8291 23.6328 46.981 23.567 47.0445C23.5013 47.1079 22.7344 46.71 21.8631 46.1602C20.3447 45.2022 20.2388 45.0547 19.3283 42.6265C18.8055 41.2325 18.3039 39.8605 18.2134 39.5772C18.0957 39.2088 18.7097 39.4854 20.3744 40.5511L22.6995 42.04L23.1932 44.4846ZM25.7021 43.9073C26.614 44.4985 27.3627 45.0088 27.3653 45.0414C27.3679 45.0739 27.6024 46.1964 27.8861 47.5353C28.1699 48.8745 28.3389 49.9699 28.2616 49.9699C28.1846 49.9699 27.3024 49.4552 26.3014 48.8258C24.7483 47.8497 24.4357 47.5125 24.1718 46.5303C24.0019 45.897 23.7418 44.9407 23.5944 44.405C23.2143 43.0255 23.2463 42.3814 23.6832 42.6284C23.8817 42.7406 24.7901 43.3163 25.7021 43.9073ZM88.5181 45.9432C90.2857 47.1953 94.5584 51.4157 94.5584 51.9098C94.5584 52.1739 85.928 61.2369 75.3796 72.0497L56.2008 91.7094V84.4157V77.1221L57.4374 78.293C58.6161 79.409 59.3732 79.7657 59.3732 79.2053C59.3732 79.0632 58.7174 78.3431 57.9156 77.6054L56.4583 76.264L57.885 74.7337L59.3115 73.2033L61.4748 75.2206C63.7067 77.3021 64.2288 77.5459 64.8664 76.8046C65.186 76.4332 64.9169 76.0584 62.9785 74.1775L60.7177 71.9835L61.8166 70.7848C62.4208 70.1257 63.0186 69.4751 63.1446 69.3393C63.271 69.2038 64.1223 69.7358 65.0363 70.5222C66.1536 71.4827 66.7938 71.8594 66.9894 71.6708C67.1846 71.4824 66.771 70.8928 65.7276 69.8736L64.1748 68.3569L65.5756 66.8847C66.3462 66.075 67.0067 65.3713 67.0433 65.3207C67.0799 65.2703 68.0772 66.1153 69.2594 67.1988C71.4262 69.1846 72.476 69.6259 72.8422 68.7055C72.9749 68.3716 72.409 67.671 70.8142 66.196C69.5977 65.0705 68.607 64.0583 68.6131 63.9464C68.6194 63.8346 69.1899 63.1239 69.8809 62.3671L71.1378 60.9909L72.7952 62.4525C74.0105 63.524 74.5377 63.8312 74.7719 63.6039C75.0058 63.3771 74.6863 62.9211 73.5771 61.8991C72.7445 61.1317 72.0682 60.4188 72.0745 60.3148C72.0808 60.211 72.6637 59.5201 73.37 58.7797L74.654 57.4335L76.8914 59.4113C79.1551 61.4124 80.1665 61.7959 80.3765 60.733C80.444 60.3921 79.7385 59.563 78.2166 58.194L75.9564 56.1611L77.2542 54.7632C77.968 53.9944 78.6236 53.3528 78.7107 53.3372C78.798 53.3217 79.6001 53.9371 80.493 54.7051C82.6517 56.561 83.0301 55.9842 80.9723 53.9741L79.4305 52.468L80.8763 51.0732L82.322 49.678L84.5208 51.6327C86.8047 53.6631 87.3088 53.8862 87.9445 53.1472C88.2721 52.7663 87.9984 52.4079 85.9034 50.4741L83.4837 48.2409L85.1023 46.7403C85.9926 45.9151 86.9016 45.2398 87.1228 45.2398C87.3437 45.2398 87.9716 45.5564 88.5181 45.9432ZM30.2219 46.7943L32.2116 48.0706L32.6457 50.3419C32.8845 51.5913 33.0318 52.6597 32.9733 52.7162C32.9148 52.773 32.0611 52.3278 31.0762 51.727C29.3449 50.6711 29.269 50.5754 28.7906 48.8416C28.043 46.1324 27.9118 45.518 28.0794 45.518C28.1636 45.518 29.1277 46.0923 30.2219 46.7943ZM34.2235 51.532C34.3262 54.1703 33.9694 54.0086 33.3087 51.1182C32.7091 48.4941 32.7143 48.4307 33.489 48.9254C34.056 49.2877 34.1485 49.6165 34.2235 51.532ZM51.2979 71.636C51.2979 84.5529 51.1941 91.3117 50.9806 92.2714C50.786 93.1473 50.3242 94.0711 49.7843 94.6643C49.1432 95.3688 48.9912 95.7138 49.2231 95.9376C49.6523 96.3516 51.1309 94.8207 51.6394 93.4359C52.1816 91.9592 52.1997 52.7181 51.6584 52.5437C51.3723 52.4516 51.2979 56.3929 51.2979 71.636ZM31.3352 66.0533C28.0967 69.2144 19.3595 76.9596 19.0322 76.9596C18.9203 76.9596 18.2587 76.3998 17.5627 75.7153C16.4111 74.5834 16.3353 74.4265 16.7235 73.9763C19.1988 71.1051 22.4434 67.7517 27.778 62.5516L34.1379 56.3515L34.2192 59.7552L34.3008 63.159L31.3352 66.0533ZM16.4039 77.1015C18.4669 79.1024 18.7968 79.5448 18.5298 79.9535C17.9016 80.916 17.2348 80.6708 15.1906 78.7259C12.67 76.328 12.4514 75.9649 13.106 75.2671C13.3812 74.9738 13.6866 74.7337 13.7844 74.7337C13.8821 74.7337 15.0611 75.7993 16.4039 77.1015ZM13.9185 79.7112C14.854 80.6358 14.9677 80.8762 14.698 81.3623C14.5244 81.6753 14.3822 82.9218 14.3822 84.1325C14.3822 85.8771 14.2775 86.4244 13.8775 86.7702C13.4161 87.1695 3.46902 91.28 2.12506 91.627C1.80782 91.7091 2.9623 90.3941 4.69041 88.7049C7.54994 85.9105 7.89198 85.66 8.49071 85.9233C9.45859 86.3487 10.5617 85.9689 11.0604 85.0384C11.6412 83.9544 11.6138 83.576 10.8888 82.6867C9.52435 81.0134 6.31355 82.5036 7.07724 84.4555C7.38151 85.2335 7.29181 85.3648 4.51852 88.206C1.62757 91.1673 0.751395 91.8017 1.51192 90.3832C1.73802 89.9614 2.84982 87.4261 3.98267 84.7488C5.11581 82.0715 6.23683 79.6934 6.47448 79.4638C6.79605 79.1527 7.4438 79.0657 9.0156 79.1221C10.1759 79.1639 11.4362 79.0779 11.8163 78.9313C12.796 78.5531 12.7161 78.5234 13.9185 79.7112ZM9.71671 84.0084C9.77958 84.3211 9.61519 84.4722 9.21201 84.4722C8.88323 84.4722 8.61414 84.3053 8.61414 84.1013C8.61414 83.2491 9.54828 83.1703 9.71671 84.0084ZM39.2493 89.6356C37.978 90.4945 38.718 92.2631 40.3489 92.2631C41.2317 92.2631 41.7806 91.6362 41.7806 90.6275C41.7806 90.0822 40.8014 89.2024 40.1943 89.2024C40.0271 89.2024 39.6017 89.3974 39.2493 89.6356ZM46.5839 89.7113C45.5731 90.7889 46.2136 92.2631 47.6928 92.2631C49.2277 92.2631 49.8074 90.8251 48.7023 89.7589C47.9838 89.0658 47.2057 89.0482 46.5839 89.7113ZM40.7712 90.8718C40.7712 91.3062 40.5848 91.5944 40.2656 91.6537C39.6945 91.7597 39.3234 91.0936 39.5858 90.4339C39.861 89.7424 40.7712 90.0786 40.7712 90.8718ZM48.2697 90.8718C48.2697 91.3062 48.0833 91.5944 47.7641 91.6537C47.193 91.7597 46.8219 91.0936 47.0843 90.4339C47.3595 89.7424 48.2697 90.0786 48.2697 90.8718ZM56.3957 94.9506C56.1624 95.3861 55.6877 95.9901 55.341 96.2929L54.7106 96.8432L55.078 96.0141C55.4737 95.1215 56.5134 93.8632 56.7037 94.0469C56.7678 94.1087 56.629 94.5154 56.3957 94.9506Z" fill="black"/>
</svg>
