<svg width="100" height="100" viewBox="0 0 100 100" fill="none" xmlns="http://www.w3.org/2000/svg">
<path fill-rule="evenodd" clip-rule="evenodd" d="M5.00741 0.782508C2.27556 2.60596 0 5.57924 0 7.32557C0 8.77604 0.725643 9.9239 2.91515 11.9378C3.88472 12.8296 5.25609 14.2714 5.96246 15.1419C6.66882 16.0121 8.22517 17.5069 9.42135 18.4637C10.6172 19.4203 14.8476 23.4405 18.8223 27.3979L26.0488 34.5927L25.87 42.0245C25.4115 61.0785 24.4595 73.3093 22.7422 82.207C21.6799 87.7107 20.5684 90.9341 19.2241 92.4081C18.5119 93.1895 18.9469 94.1873 20 94.1873C20.3853 94.1873 28.6482 94.8214 38.3618 95.5965C48.0755 96.3717 64.1958 97.6323 74.1849 98.3979C84.174 99.1635 92.9756 99.8587 93.744 99.9426C95.4705 100.131 95.81 99.914 96.1479 98.4038C98.8138 86.4952 100.437 51.2127 99.8962 16.9479C99.6864 3.67474 99.6763 3.50254 99.0778 2.90183C98.5145 2.33645 98.1093 2.28149 93.3137 2.11911C77.9107 1.59776 26.8041 0.706787 26.5565 0.955261C26.3995 1.11287 26.1994 4.56206 26.0893 9.00768C25.9834 13.285 25.8043 16.7844 25.6912 16.7844C25.578 16.7844 22.8632 14.1017 19.6583 10.823C12.6357 3.63884 10.0872 1.27889 8.53811 0.526461C6.98037 -0.230461 6.4696 -0.193441 5.00741 0.782508ZM7.67025 1.92083C8.15224 1.92083 10.8327 4.08026 11.1954 4.76062C11.4194 5.18073 11.3457 5.50212 10.8634 6.20491L10.2431 7.10907L11.1291 6.2854C11.6162 5.83248 12.0149 5.58205 12.0149 5.729C12.0149 5.87595 10.506 7.50646 8.66189 9.35263C6.81775 11.1988 5.3089 12.5949 5.3089 12.4552C5.3089 12.3155 5.52908 11.9389 5.79788 11.6183C6.27959 11.044 6.2782 11.0426 5.70595 11.5261C5.38658 11.7961 5.04346 12.0169 4.94371 12.0169C4.59583 12.0169 1.6765 8.25833 1.6765 7.81074C1.6765 7.56255 2.11462 6.93295 2.65026 6.41216C3.1859 5.8911 3.56171 5.40228 3.48571 5.32572C3.40943 5.24944 2.9551 5.55624 2.47563 6.00776C1.7972 6.64661 1.67175 6.69682 1.90981 6.23464C2.43623 5.21214 6.4791 1.60057 6.91135 1.76715C7.13097 1.85156 7.47242 1.92083 7.67025 1.92083ZM6.26031 2.55184L5.72803 3.18284L6.35671 2.64859C6.70235 2.35468 6.9854 2.07087 6.9854 2.01759C6.9854 1.79323 6.76047 1.95897 6.26031 2.55184ZM60.4935 3.32727C74.7857 3.63071 88.88 3.95659 91.8141 4.05081L97.149 4.22245L97.3326 10.9694C97.8235 29.0104 97.4429 59.1325 96.5312 74.4159C95.9212 84.6395 94.608 96.8838 94.019 97.8404C93.924 97.9946 93.2168 98.0487 92.4 97.964C90.4439 97.761 55.9273 95.0306 37.5814 93.6275C29.4365 93.0046 22.3597 92.4275 21.8554 92.345L20.9386 92.1956L21.4566 91.4386C23.229 88.8493 25.1664 81.2635 26.2553 72.6519C27.333 64.1269 27.8066 57.5404 28.2132 45.4232C28.3602 41.0457 28.5518 37.3924 28.639 37.3046C28.7265 37.2171 30.0411 38.3882 31.5603 39.9074L34.3229 42.6698L33.7965 43.3987C32.7624 44.8312 32.3857 48.4094 33.0082 50.8902C33.3877 52.4032 34.5679 53.6708 35.9863 54.0884C37.7871 54.6187 45.2698 55.0571 45.8899 54.6684C46.3487 54.3809 46.5993 54.4743 47.6222 55.3156C48.28 55.8566 50.6746 57.1206 52.9437 58.124C55.2126 59.1277 58.0148 60.4907 59.1708 61.1528L61.2728 62.3568L59.9051 62.4471C59.1529 62.4967 53.7596 62.3354 47.9198 62.0887C34.4665 61.5205 33.6403 61.6436 32.2197 64.4312C30.9014 67.018 31.097 71.6297 32.5914 73.1951C33.9504 74.6189 35.3841 74.8559 44.2874 75.1282C48.7441 75.2645 55.2707 75.5865 58.7908 75.8439C65.6004 76.3423 71.2396 76.2764 72.3777 75.6855C73.6607 75.0191 74.3406 74.1669 74.7692 72.6872L75.1961 71.2129L77.4845 71.1316L79.7732 71.0506L79.9535 68.5266C80.0524 67.1383 80.2279 62.122 80.3433 57.3789L80.5528 48.7552H85.271C89.2974 48.7552 90.0141 48.6907 90.1575 48.3157C90.5101 47.3936 89.7526 47.2147 85.0684 47.1137L80.4718 47.0147V38.6715C80.4718 34.0826 80.391 29.5523 80.2924 28.6043C80.1317 27.0613 80.0473 26.8805 79.4891 26.8805C79.146 26.8805 78.4868 26.8044 78.0241 26.7116C77.2549 26.5571 77.1671 26.4208 76.9936 25.1089C76.8399 23.9462 76.6069 23.4868 75.7594 22.6777C73.8996 20.9019 75.5281 21.0635 47.2649 19.8514C43.0627 19.671 38.978 19.6096 38.1872 19.7151C35.4143 20.0841 34.1114 21.2163 33.6827 23.6287L33.4883 24.7238L31.0389 22.2767L28.5893 19.8295L28.4012 11.4156C28.2978 6.78796 28.28 2.89342 28.3613 2.76133C28.4426 2.62924 29.8589 2.5782 31.5086 2.64803C33.158 2.71786 46.2014 3.02354 60.4935 3.32727ZM13.8744 6.56052C13.9876 6.85611 12.9403 8.12708 10.5826 10.5569C8.68089 12.5166 7.03094 14.1623 6.91582 14.2136C6.80042 14.2649 6.64004 14.1334 6.55873 13.9214C6.4696 13.6883 7.74289 12.159 9.77201 10.0616C11.6203 8.15092 13.1325 6.48424 13.1325 6.35776C13.1325 5.95448 13.7023 6.1104 13.8744 6.56052ZM15.2248 8.04267C15.317 8.28413 15.0625 8.80043 14.6257 9.25812C13.7241 10.2027 14.0493 10.3266 15.058 9.42274C15.4453 9.07583 14.1974 10.4548 12.2848 12.4872C10.3722 14.5198 8.75242 16.1273 8.68508 16.06C8.61802 15.9924 8.93097 15.5283 9.38083 15.0288L10.1987 14.1202L9.29337 14.9411C8.79573 15.3926 8.29893 15.6722 8.1894 15.5625C8.08015 15.4526 9.61917 13.7046 11.6095 11.6781C13.5997 9.6513 14.5366 8.59767 13.6914 9.33664C12.8461 10.0753 11.2322 11.6747 10.1045 12.8907C8.97707 14.1067 7.91418 15.1018 7.74261 15.1018C7.57105 15.1018 7.92787 14.5655 8.53532 13.9101C9.54401 12.822 9.55407 12.7976 8.64848 13.6297C8.10334 14.1309 7.54619 14.5409 7.41039 14.5409C7.27431 14.5409 8.78651 12.9844 10.7704 11.0821C12.7545 9.17959 14.5321 7.62312 14.721 7.62312C14.9099 7.62312 15.1365 7.81215 15.2248 8.04267ZM13.6701 8.58141L12.9928 9.35263L13.7612 8.67283C14.4793 8.03734 14.6579 7.81018 14.4385 7.81018C14.3885 7.81018 14.0429 8.15709 13.6701 8.58141ZM16.5643 9.58428C16.7351 9.47827 16.6079 9.76152 16.2816 10.2133C15.4841 11.3185 11.4561 15.2936 11.4561 14.9758C11.4561 14.837 11.173 14.9725 10.8274 15.2765C8.91784 16.9561 9.45348 16.2631 12.4348 13.1967C14.2787 11.3006 15.8395 9.5969 15.9035 9.41068C15.9918 9.15323 16.048 9.1566 16.1368 9.42442C16.2011 9.61821 16.3936 9.69 16.5643 9.58428ZM17.4417 10.5793C17.5247 10.7142 16.0371 12.4445 14.1356 14.425C11.2797 17.3992 10.6083 17.9668 10.2738 17.6886C9.93631 17.407 10.4502 16.7726 13.3871 13.8456C15.3218 11.9176 16.9916 10.3387 17.0977 10.337C17.2039 10.3356 17.3587 10.4444 17.4417 10.5793ZM31.4469 24.9874C44.8773 38.2623 49.1901 42.4603 52.7272 45.702L54.7401 47.5467L53.8828 48.1831L53.0253 48.8194L50.6908 46.4883C49.4066 45.2064 48.2856 44.2282 48.1992 44.3149C48.1129 44.4013 48.7902 45.1669 49.7039 46.0161C51.5176 47.7015 53.3944 49.7592 52.9485 49.5732C52.4922 49.3828 16.9427 13.4278 17.0773 13.2926C17.145 13.2245 18.1397 14.1034 19.2878 15.2456C20.4359 16.3879 21.5639 17.3969 21.7944 17.4881C22.025 17.5789 21.1711 16.5982 19.8969 15.3084C18.2157 13.6067 17.63 12.8338 17.7614 12.4903C17.8608 12.23 18.0282 12.0169 18.1333 12.0169C18.2383 12.0169 24.2293 17.8538 31.4469 24.9874ZM27.3054 25.4833C33.4181 31.5788 41.5408 39.6359 45.3554 43.388C49.1699 47.1404 52.2505 50.23 52.201 50.2539C52.1516 50.278 51.7624 50.6064 51.3362 50.9836L50.5614 51.6696L48.8914 50.0107C47.9729 49.0984 47.2213 48.4739 47.2213 48.6228C47.2213 48.7717 39.8657 41.5116 30.8755 32.4894C21.8853 23.4672 14.5296 15.961 14.5296 15.8093C14.5296 15.6576 15.7479 16.73 17.2366 18.1923C18.7256 19.6545 19.7628 20.6002 19.5418 20.2939C19.3208 19.9874 18.9394 19.5457 18.694 19.3124C18.449 19.0788 17.518 18.0989 16.6255 17.1347C15.0382 15.4198 15.0139 15.369 15.5095 14.8191C15.7884 14.51 16.0558 14.2893 16.1036 14.3288C16.1516 14.3684 21.1923 19.3878 27.3054 25.4833ZM23.0932 26.1092C28.1855 31.2377 36.2746 39.3375 41.0685 44.1082L49.7846 52.7824L49.1317 53.2818L48.4787 53.781L45.5448 50.9177L42.6109 48.0541L45.4749 51.0035C47.05 52.6256 48.339 54.1821 48.339 54.4622C48.339 54.7957 47.5979 54.165 46.1919 52.6346C45.0108 51.3493 36.9008 43.1028 28.1696 34.3089C19.4381 25.5152 12.2943 18.1998 12.2943 18.0529C12.2943 17.9056 12.9543 18.4135 13.7612 19.1817C16.7278 22.0055 17.3992 22.4581 15.1108 20.0914C13.0926 18.0044 12.8093 17.596 13.1191 17.2214C13.3178 16.981 13.5601 16.7844 13.6573 16.7844C13.7545 16.7844 18.0005 20.9807 23.0932 26.1092ZM56.442 22.5254C72.8144 23.0785 73.1067 23.109 74.2978 24.3921C74.798 24.9311 74.8832 25.3733 74.8823 27.4242C74.8809 30.7584 74.4099 31.5269 72.1974 31.8042C71.3153 31.915 69.5156 31.9282 68.1982 31.834C60.5458 31.2865 56.817 31.0574 48.907 30.6488C44.0712 30.3989 39.821 30.1631 39.4616 30.1246C39.1026 30.0862 38.1869 29.4401 37.4266 28.6885L36.0447 27.3222V25.4059C36.0447 23.7454 36.136 23.3979 36.7306 22.8014C37.3845 22.1449 37.5761 22.1129 40.852 22.114C42.7414 22.1146 49.757 22.2997 56.442 22.5254ZM42.5064 27.0151C40.5055 28.0973 40.3521 28.2126 40.5921 28.4532C40.6855 28.5469 41.5086 28.1683 42.4215 27.6119C43.3343 27.0554 44.2218 26.6 44.3939 26.6C44.5657 26.6 44.7065 26.4738 44.7065 26.3196C44.7065 25.888 44.4269 25.9766 42.5064 27.0151ZM48.5211 27.8943C47.1383 28.6164 46.9455 29.0444 48.1381 28.7437C48.7707 28.5844 50.5673 27.1466 50.0998 27.1741C49.9766 27.1811 49.2661 27.5053 48.5211 27.8943ZM57.3646 27.6893C55.955 28.1461 55.2092 28.5631 55.8016 28.5631C55.9614 28.5631 56.6306 28.3724 57.2886 28.1394C58.6846 27.6452 59.0836 27.8334 58.1867 28.5634C57.5166 29.1086 57.819 29.4275 58.7709 29.1798C59.1655 29.0769 59.1982 28.9933 58.9129 28.8164C58.6178 28.6332 58.6131 28.5154 58.8891 28.2384C59.2686 27.8575 59.3619 27.1435 59.0266 27.1898C58.9115 27.2055 58.1635 27.4304 57.3646 27.6893ZM43.9382 27.7453C43.2516 28.0062 43.1055 28.2852 43.6587 28.2785C44.1024 28.2729 44.8728 27.7922 44.6984 27.6295C44.6261 27.5619 44.2841 27.6141 43.9382 27.7453ZM63.0519 28.154C61.6746 28.6369 61.2346 28.7095 61.4793 28.4134C61.9982 27.786 61.3497 27.9234 60.773 28.5631C60.2831 29.1063 60.2848 29.124 60.8255 29.124C61.1328 29.124 62.115 28.8716 63.0083 28.5631C64.9958 27.8769 64.9024 27.8743 64.6719 28.6041C64.464 29.2614 64.6228 29.255 66.4172 28.5309C67.1987 28.2156 67.3803 28.233 67.8598 28.6686C68.3812 29.1422 68.4918 29.1431 70.1038 28.6893C71.0362 28.4265 71.7384 28.113 71.664 27.9924C71.5897 27.8715 70.8722 27.947 70.0691 28.1596C68.8006 28.4953 68.5793 28.4919 68.3795 28.1338C68.0783 27.5939 66.7885 27.6071 66.0045 28.1584C65.423 28.5671 65.3833 28.5581 65.3833 28.0182C65.3833 27.3222 65.4314 27.3193 63.0519 28.154ZM79.1049 27.9374C79.2077 28.0502 79.2253 32.4019 79.1437 37.6075L78.9956 47.0725H77.9176C77.3244 47.0725 76.7514 47.0798 76.6435 47.089C76.5357 47.098 76.2828 46.538 76.0813 45.8447C75.4451 43.6544 73.5579 42.5175 69.9937 42.1768C66.7938 41.8708 50.9263 41.1728 50.5416 41.3211C50.1593 41.4681 41.6623 33.2067 41.9258 32.9442C41.9954 32.875 45.1955 32.9899 49.0375 33.1994C74.6854 34.5989 74.8477 34.5879 76.4901 31.362C76.8899 30.5767 77.1188 29.6252 77.1188 28.7491V27.3712L78.0182 27.5518C78.5128 27.6511 79.0018 27.8247 79.1049 27.9374ZM45.1709 28.1755C44.7345 28.4128 44.44 28.6694 44.5163 28.746C44.6652 28.8954 46.383 28.0757 46.383 27.8547C46.383 27.6253 45.9921 27.7288 45.1709 28.1755ZM51.9015 28.4953C50.695 29.2463 51.0035 29.4816 52.3206 28.8147C53.7968 28.0676 53.8706 28.0005 53.2055 28.0098C52.911 28.0137 52.324 28.2322 51.9015 28.4953ZM63.6029 44.1104C74.1818 44.615 74.0452 44.551 74.0452 49.0014C74.0452 51.2514 73.9731 51.6126 73.3869 52.2966C72.7465 53.0437 72.6456 53.065 69.6847 53.0833C68.0104 53.0937 64.8223 53.0143 62.5998 52.9069L58.5586 52.712L57.3864 50.3829C56.6756 48.9708 55.4892 47.25 54.3721 46.0116C53.3592 44.8881 52.5302 43.9102 52.5302 43.8381C52.5302 43.6351 54.7996 43.6909 63.6029 44.1104ZM40.0962 48.316C42.2477 50.3781 43.9362 52.1393 43.8482 52.2299C43.5897 52.4963 36.974 51.9088 36.3285 51.5621C35.5191 51.1272 35.2064 50.156 35.2064 48.0776C35.2064 46.3815 35.623 44.5384 36.0022 44.5577C36.1025 44.5628 37.9447 46.2542 40.0962 48.316ZM59.5237 48.8954C59.0716 49.3853 59.0576 49.5037 59.4147 49.8312C59.871 50.2497 60.6333 50.0783 60.6333 49.5572C60.6333 49.3719 60.8297 49.002 61.07 48.7358C61.4735 48.2882 61.4508 48.2546 60.7741 48.293C60.3712 48.3157 59.8087 48.5869 59.5237 48.8954ZM78.9702 56.9582C78.8679 61.624 78.7078 66.4198 78.6139 67.6151L78.4438 69.7886H76.8422H75.2406L75.0891 68.1129C74.7267 64.1003 72.179 62.787 64.7449 62.7797C62.6811 62.7774 62.5844 62.7497 62.8588 62.235C63.2941 61.4181 63.248 61.2768 61.8973 59.2968C60.9303 57.8789 59.795 55.7621 59.795 55.3765C59.795 55.3538 61.9638 55.3815 64.6149 55.4379C73.955 55.6367 75.8516 54.7937 76.2124 50.2847L76.3571 48.4747H77.7564H79.156L78.9702 56.9582ZM50.4214 52.0869C50.2407 52.2683 47.8223 49.9016 47.4471 49.1758C47.2872 48.8673 47.9223 49.3649 48.8581 50.2816C49.7939 51.1981 50.4974 52.0106 50.4214 52.0869ZM57.7251 53.3124C58.9394 55.819 59.9702 57.9487 60.0157 58.0455C60.2275 58.4976 59.0967 58.5354 58.567 58.0943C58.2434 57.8245 58.1361 57.7838 58.3281 58.0034C59.1026 58.8885 58.703 59.1931 57.6295 58.5357C56.8433 58.0542 56.6792 58.0158 56.9726 58.3815C57.3297 58.8268 57.3054 58.8461 56.6932 58.6041C55.1338 57.9874 49.064 54.9606 49.3527 54.9435C49.5259 54.9334 50.1367 55.1216 50.7101 55.3622C51.2834 55.6025 51.8093 55.7419 51.8789 55.6721C51.9484 55.6025 51.4318 55.3254 50.731 55.0568C50.03 54.7881 49.4566 54.4827 49.4566 54.3778C49.4566 54.2732 49.8967 53.9768 50.4346 53.7193C50.9724 53.4619 51.4125 53.0808 51.4125 52.8721C51.4125 52.6637 51.8842 52.0571 52.4603 51.5243C53.0368 50.9914 53.7716 50.184 54.0938 49.73L54.6792 48.9046L55.1592 49.7412C55.5957 50.5021 55.5937 50.2648 55.1547 49.1758C55.0614 48.9445 55.1047 48.7552 55.2511 48.7552C55.3973 48.7552 56.5107 50.8061 57.7251 53.3124ZM64.0256 49.3222C62.5643 49.9877 62.4148 50.0051 62.8686 49.4563C63.4526 48.7501 62.944 48.9863 61.9004 49.9061C60.4282 51.2035 60.7003 51.3914 62.659 50.4303C64.2427 49.6532 64.2668 49.7763 62.7456 50.8748C61.6961 51.6328 62.5282 51.5607 64.4884 50.7233C65.5784 50.2578 66.5429 49.8769 66.6317 49.8769C66.7206 49.8769 66.5873 50.1925 66.3356 50.5781C65.9114 51.2279 65.9114 51.2792 66.3372 51.2792C66.5896 51.2792 67.5538 50.8952 68.4798 50.4263C69.5041 49.9072 70.1309 49.7151 70.0803 49.9356C69.9291 50.5957 70.9074 50.6316 71.6867 49.9942C72.2159 49.5614 72.0242 49.5679 70.9018 50.0203C70.5575 50.1591 70.4128 50.0842 70.4128 49.7667C70.4128 49.1534 70.0686 49.1974 68.4569 50.0172C66.6262 50.9482 66.492 50.9034 67.6186 49.7367C68.7427 48.5729 68.4628 48.5117 66.3345 49.4563C64.3757 50.3257 64.1782 50.324 65.2436 49.4476C66.2666 48.606 65.7214 48.5499 64.0256 49.3222ZM38.3577 49.3862C37.9388 49.9297 37.6753 50.4378 37.8122 50.4378C37.8804 50.4378 38.1422 50.1223 38.394 49.7367C38.8651 49.0151 38.8388 48.7619 38.3577 49.3862ZM40.5153 50.7183C40.2636 50.8815 40.2289 50.9917 40.429 50.9945C40.612 50.9968 40.8394 50.8725 40.9344 50.7183C41.1487 50.37 41.0521 50.37 40.5153 50.7183ZM57.0008 56.9941C57.0008 57.0521 57.2207 57.2731 57.4898 57.4849C57.933 57.8335 57.9428 57.8236 57.5954 57.3789C57.2302 56.9116 57.0008 56.7633 57.0008 56.9941ZM61.5022 59.7626C62.3718 60.7798 62.8957 61.8862 62.5961 62.0721C62.2913 62.2611 60.8126 61.3822 61.0443 61.1497C61.2463 60.9467 60.3438 59.9713 59.9613 59.9791C59.793 59.9825 59.9696 60.2321 60.3538 60.5339C60.738 60.8356 60.9465 61.0852 60.8171 61.0886C60.6875 61.0919 60.2619 60.8424 59.8713 60.5339C59.4804 60.2254 59.3111 59.973 59.4944 59.973C59.6779 59.973 59.7562 59.8563 59.6684 59.7138C59.5296 59.4881 59.9448 59.2727 60.7283 59.1642C60.8573 59.1462 61.2055 59.4154 61.5022 59.7626ZM48.2604 64.4626C52.0689 64.6183 58.6044 64.8639 62.7839 65.0086C72.8194 65.3561 72.9038 65.3951 72.9186 69.7027C72.9267 72.0307 72.8622 72.3577 72.2536 73.0681C71.5889 73.8444 71.5366 73.855 68.4116 73.8547C66.6692 73.8547 62.4145 73.6335 58.9568 73.3634C55.499 73.093 48.8978 72.7593 44.2874 72.6213C39.5647 72.48 35.5674 72.2377 35.1315 72.0661C34.1631 71.6849 33.8093 70.7724 33.8093 68.6541C33.8093 66.5141 34.459 64.858 35.4403 64.4974C36.435 64.1317 39.9322 64.1222 48.2604 64.4626ZM52.3905 68.7935C51.6221 69.1463 50.8364 69.3746 50.6441 69.3011C50.4522 69.2277 50.2949 69.3673 50.2949 69.6113C50.2949 70.092 50.8389 69.9652 52.5182 69.0936C53.6571 68.5024 53.725 68.5451 53.2162 69.5325C52.8007 70.3388 52.8032 70.3918 53.2494 70.3037C53.5749 70.2395 53.763 69.8716 53.8359 69.1576C53.8946 68.5793 53.908 68.1163 53.8652 68.1292C53.8225 68.1421 53.1589 68.441 52.3905 68.7935ZM65.5627 69.0173C65.086 70.1579 65.2352 70.4574 66.0265 69.9476C66.3644 69.7299 67.3635 69.3438 68.2473 69.0894C69.1311 68.835 69.854 68.5672 69.854 68.494C69.854 68.2834 67.8522 68.7156 66.8153 69.15C65.8734 69.5446 65.8726 69.5443 66.0522 68.8255C66.3046 67.8165 66.0179 67.9289 65.5627 69.0173ZM41.1107 69.1183C40.0744 69.5799 39.7195 69.6545 39.9629 69.36C40.1568 69.1256 40.249 68.867 40.168 68.7854C40.0009 68.6177 38.8388 70.0154 38.8388 70.3842C38.8388 70.516 39.5267 70.2852 40.3678 69.8713C42.0775 69.0294 42.5 69.1346 41.7883 70.2249C41.1672 71.1762 41.4421 71.4249 42.4531 70.8254C43.3628 70.2861 43.7018 70.2196 43.4492 70.6299C43.1983 71.0371 43.5808 70.9802 45.4311 70.3343C46.4029 69.995 47.4264 69.82 47.9198 69.9086C48.6865 70.0463 48.7142 70.0255 48.2442 69.6643C47.8025 69.3247 47.5479 69.325 46.428 69.6663C44.6722 70.2011 44.2531 70.1966 44.7065 69.6483C45.1732 69.0838 44.8977 69.1186 43.5889 69.7886C42.2189 70.4899 42.0979 70.4885 42.479 69.774C43.1074 68.5955 42.711 68.4057 41.1107 69.1183ZM60.6863 69.0841L59.4821 69.7751L59.6357 69.1508C59.7271 68.7804 59.6307 68.8684 59.3991 69.3679C59.1842 69.8306 59.0498 70.2519 59.1004 70.304C59.151 70.3562 59.7475 70.0724 60.4262 69.673C61.9574 68.7725 62.0848 68.7714 61.8621 69.6624L61.6833 70.3778L63.5244 69.4666C65.6233 68.4276 65.841 68.0891 63.863 68.9402C62.2391 69.6388 62.2203 69.6388 62.5892 68.9472C63.0158 68.1471 62.2195 68.2043 60.6863 69.0841ZM35.8915 69.8146C35.2933 70.976 35.5501 71.1296 36.7351 70.3197C37.8402 69.5645 38.1098 68.9593 37.0226 69.6741C36.3048 70.1461 36.0611 69.8842 36.6594 69.2838C36.912 69.0302 36.9139 68.9472 36.6666 68.9472C36.4861 68.9472 36.1374 69.3376 35.8915 69.8146ZM56.0528 69.3909C55.7695 70.1321 55.8578 70.3494 56.442 70.3494C56.7494 70.3494 57.0008 70.2157 57.0008 70.0525C57.0008 69.8892 56.8553 69.8458 56.6773 69.956C56.4557 70.0937 56.4035 69.9664 56.5116 69.5519C56.6924 68.8578 56.3082 68.7229 56.0528 69.3909ZM83.8055 80.6558C81.9245 82.6273 80.923 83.8534 81.6652 83.276C82.2184 82.8455 85.6197 79.0432 85.4515 79.0432C85.3923 79.0432 84.6518 79.7688 83.8055 80.6558ZM85.6278 81.6374L84.5233 82.8293L85.7108 81.7207C86.8151 80.6897 87.0269 80.4455 86.8154 80.4455C86.7698 80.4455 86.2353 80.982 85.6278 81.6374ZM81.5866 85.5681C80.4324 86.684 78.5463 88.4595 77.3954 89.5139C75.867 90.9139 75.7156 91.1032 76.8338 90.2151C79.5422 88.064 84.2774 83.5124 83.784 83.5349C83.7295 83.5374 82.7406 84.4522 81.5866 85.5681ZM82.4277 89.8404C80.9739 91.3057 79.9138 92.5046 80.0722 92.5046C80.2304 92.5046 81.4626 91.3057 82.8105 89.8404C84.1584 88.3751 85.2182 87.1762 85.166 87.1762C85.1137 87.1762 83.8815 88.3751 82.4277 89.8404ZM86.021 90.4714C85.2171 91.4454 84.8768 91.9437 85.0148 91.9437C85.0922 91.9437 85.4912 91.502 85.9014 90.9622C86.6628 89.9604 86.755 89.5821 86.021 90.4714Z" fill="black"/>
</svg>
