<svg xmlns="http://www.w3.org/2000/svg" width="6495" height="2766" viewBox="0 0 6495 2766" fill="none">
<path d="M557.962 2683.23C1662 2142.85 2038.75 1546.92 2175.29 1094.83C2327.66 590.279 2249.08 38.8276 2413.56 4.58195C2518.88 -17.3543 2648.47 188.564 2890.09 639.961C3622.77 2008.76 3639.36 2372.27 3951.52 2466.61C4388.81 2598.87 4658.38 1976.66 5330.56 1990.07C5824.25 1999.94 6223.74 2346.38 6493 2654.33" stroke="#4A3AFF" stroke-width="5" stroke-miterlimit="10"/>
<path d="M531.45 2628.9C1604.4 2100.16 2002.79 1520.9 2150.16 1097.2C2314.84 623.701 2237.07 100.736 2399.84 76.0021C2504.48 60.0888 2631.64 262.485 2865.02 698.413C3574.29 2023 3596.29 2391.03 3906.05 2480.72C4345.88 2606.28 4603.7 1939.06 5283 1929.97C5297.81 1929.77 5312.39 1929.77 5326.99 1930.17C5808.96 1943.58 6214.15 2290.18 6489.17 2596.24" stroke="#4A3AFF" stroke-width="5" stroke-miterlimit="10"/>
<path d="M505.025 2574.58C1546.81 2057.52 1966.53 1495.92 2125.1 1099.6C2301.84 657.848 2225.17 162.711 2386.18 147.456C2490.18 137.582 2614.92 336.473 2840.01 756.916C3525.72 2037.22 3553 2410.96 3860.7 2494.82C4302.67 2615.28 4549.27 1901.12 5235.56 1869.86C5250.62 1869.17 5265.63 1868.47 5280.63 1868.56C5770.57 1871.26 6196.82 2225.02 6485.42 2538.13" stroke="#4A3AFF" stroke-width="5" stroke-miterlimit="10"/>
<path d="M478.539 2520.26C1489.3 2014.74 1929.69 1472.14 2100 1102.01C2288.31 692.72 2213.3 224.735 2372.46 218.926C2475.88 215.141 2598.05 410.445 2814.96 815.402C3477.18 2051.57 3509.86 2430.23 3815.31 2508.92C4259.63 2623.39 4494.87 1862.91 5188.08 1809.74C5203.46 1808.56 5218.83 1807.42 5234.15 1806.93C5732.02 1791.03 6179.37 2159.83 6481.54 2479.99" stroke="#4A3AFF" stroke-width="5" stroke-miterlimit="10"/>
<path d="M452.062 2465.94C1431.74 1972.1 1892.12 1449.63 2074.89 1104.41C2274.01 728.298 2201.5 286.825 2358.77 290.396C2461.61 292.716 2581.25 484.432 2789.93 873.904C3428.65 2065.85 3466.75 2449.45 3769.92 2523.01C4216.73 2631.42 4440.55 1824.42 5140.6 1749.56C5156.32 1747.92 5172.05 1746.27 5187.83 1745.25C5693.6 1714.94 6162.04 2094.62 6477.84 2421.88" stroke="#4A3AFF" stroke-width="5" stroke-miterlimit="10"/>
<path d="M425.584 2411.62C1374.19 1929.45 1853.6 1428.48 2049.82 1106.83C2258.62 764.535 2189.7 348.964 2345.12 361.849C2447.41 370.34 2564.46 558.403 2764.92 932.406C3380.17 2080.14 3423.7 2468.6 3724.57 2537.11C4173.82 2639.39 4386.28 1785.67 5093.16 1689.5C5109.22 1687.31 5125.28 1685.09 5141.47 1683.67C5655.12 1639.07 6144.77 2029.48 6474.09 2363.83" stroke="#4A3AFF" stroke-width="5" stroke-miterlimit="10"/>
<path d="M399.125 2357.29C1316.63 1886.74 1813.83 1408.68 2024.7 1109.23C2241.64 801.134 2178 411.185 2331.39 433.318C2433.18 447.997 2547.63 632.44 2739.84 990.892C3331.61 2094.4 3380.62 2487.71 3679.15 2551.2C4130.96 2647.29 4331.96 1746.68 5045.65 1629.38C5062.11 1626.68 5078.46 1623.92 5095.02 1622.06C5616.52 1563.28 6127.34 1964.35 6470.24 2305.72" stroke="#4A3AFF" stroke-width="5" stroke-miterlimit="10"/>
<path d="M372.647 2302.97C1259.07 1844.05 1723.71 1341.92 1999.6 1111.63C2166.7 800.492 2166.29 473.489 2317.7 504.772C2418.97 525.705 2530.83 706.362 2714.81 1049.48C3283.08 2108.77 3337.57 2506.83 3633.76 2565.38C4088.11 2655.19 4277.65 1707.55 4998.16 1569.35C5014.91 1566.14 5031.68 1562.85 5048.65 1560.51C5578.03 1487.69 6110.08 1899.22 6466.51 2247.69" stroke="#4A3AFF" stroke-width="5" stroke-miterlimit="10"/>
<path d="M346.17 2248.65C1201.52 1801.37 1678.72 1312.61 1974.51 1114.03C2143.71 830.524 2154.57 535.874 2304.01 576.241C2404.79 603.46 2514.01 780.3 2689.76 1107.9C3234.47 2122.97 3294.55 2525.74 3588.4 2579.4C4045.29 2662.84 4223.33 1668.04 4950.68 1509.15C4967.76 1505.41 4984.88 1501.6 5002.26 1498.8C5539.52 1412.06 6092.65 1833.97 6462.72 2189.5" stroke="#4A3AFF" stroke-width="5" stroke-miterlimit="10"/>
<path d="M319.692 2194.33C1143.96 1758.68 1633.71 1283.34 1949.4 1116.44C2120.71 860.541 2142.86 598.326 2290.32 647.695C2390.59 681.25 2497.21 854.288 2664.72 1166.38C3186.02 2137.31 3251.55 2544.65 3543.01 2593.47C4002.5 2670.47 4168.96 1628.41 4903.21 1449C4920.62 1444.76 4938.09 1440.43 4955.87 1437.15C5501.02 1336.57 6075.29 1768.77 6458.94 2131.38" stroke="#4A3AFF" stroke-width="5" stroke-miterlimit="10"/>
<path d="M293.225 2140C1086.42 1715.99 1588.72 1254.05 1924.29 1118.86C2097.71 890.591 2131.12 660.877 2276.61 719.165C2376.36 759.121 2480.4 928.292 2639.68 1224.84C3137.49 2151.49 3208.56 2563.48 3497.62 2607.55C3959.71 2677.99 4114.55 1588.59 4855.72 1388.86C4873.48 1384.07 4891.3 1379.26 4909.45 1375.49C5462.53 1261.17 6057.92 1703.57 6455.15 2073.24" stroke="#4A3AFF" stroke-width="5" stroke-miterlimit="10"/>
<path d="M266.747 2085.67C1028.82 1673.32 1543.76 1224.75 1899.21 1121.32C2074.74 920.689 2119.37 723.526 2262.9 790.701C2362.11 837.107 2463.58 1002.33 2614.62 1283.45C3088.94 2165.89 3165.56 2582.38 3452.25 2621.75C3916.97 2685.58 4060.09 1548.79 4808.25 1328.86C4826.35 1323.54 4844.45 1318.22 4863.06 1314.04C5424.08 1186.05 6040.56 1638.55 6451.36 2015.3" stroke="#4A3AFF" stroke-width="5" stroke-miterlimit="10"/>
<path d="M240.27 2031.34C971.276 1630.63 1498.7 1195.46 1874.1 1123.66C2051.73 950.657 2107.54 786.126 2249.22 862.089C2347.86 914.979 2446.78 1076.25 2589.59 1341.89C3040.49 2180.11 3122.61 2601.06 3406.84 2635.78C3874.2 2692.87 4005.54 1508.61 4760.77 1268.68C4779.19 1262.82 4797.72 1257.02 4816.72 1252.3C5385.7 1110.78 6023.25 1573.2 6447.63 1957.09" stroke="#4A3AFF" stroke-width="5" stroke-miterlimit="10"/>
<path d="M213.845 1977.02C913.716 1587.94 1453.7 1166.18 1849.01 1126.1C2028.73 980.722 2095.67 848.824 2235.54 933.558C2333.58 992.965 2429.98 1150.22 2564.56 1400.37C2991.92 2194.39 3079.65 2619.79 3361.46 2649.89C3831.49 2700.14 3950.94 1468.32 4713.28 1208.56C4732.04 1202.16 4750.94 1195.87 4770.29 1190.67C5347.25 1035.59 6005.85 1508.08 6443.9 1898.98" stroke="#4A3AFF" stroke-width="5" stroke-miterlimit="10"/>
<path d="M187.332 1922.7C856.15 1545.26 1408.7 1136.89 1823.91 1128.48C2005.74 1010.74 2083.78 911.54 2221.84 1005.06C2319.25 1071 2413.18 1224.23 2539.45 1458.91C2943.32 2208.71 3036.61 2638.4 3316.01 2664.01C3788.68 2707.34 3896.21 1428.14 4665.74 1148.46C4684.83 1141.53 4704.08 1134.77 4723.81 1129.08C5308.82 960.531 5988.42 1442.95 6439.96 1840.91" stroke="#4A3AFF" stroke-width="5" stroke-miterlimit="10"/>
<path d="M160.855 1868.38C798.587 1502.57 1363.7 1107.6 1798.8 1130.89C1982.75 1040.77 2071.81 974.287 2208.15 1076.48C2304.88 1148.99 2396.36 1298.18 2514.49 1517.38C2894.86 2222.94 2993.71 2656.93 3270.71 2678.08C3746.03 2714.36 3841.54 1387.64 4618.33 1088.4C4637.75 1080.92 4657.36 1073.68 4677.57 1067.51C5270.54 885.472 5971.12 1377.73 6436.24 1782.7" stroke="#4A3AFF" stroke-width="5" stroke-miterlimit="10"/>
<path d="M134.378 1814.05C741.04 1459.9 1318.69 1078.37 1773.71 1133.29C1959.66 1070.75 2059.8 1037.07 2194.46 1147.95C2290.47 1227.02 2379.56 1372.15 2489.44 1575.82C2846.33 2237.16 2950.75 2675.38 3225.32 2692.1C3703.29 2721.23 3786.73 1347.06 4570.86 1028.13C4590.6 1020.1 4610.58 1012.4 4631.1 1005.74C5232.23 810.498 5953.81 1312.56 6432.46 1724.66" stroke="#4A3AFF" stroke-width="5" stroke-miterlimit="10"/>
<path d="M107.9 1759.67C683.477 1417.14 1273.68 1048.97 1748.6 1135.64C1936.74 1100.77 2047.74 1099.77 2180.74 1219.34C2276.02 1304.91 2362.75 1446.06 2464.38 1634.3C2797.79 2251.41 2907.76 2693.83 3179.92 2706.2C3660.56 2728.12 3731.85 1306.52 4523.38 968.116C4543.44 959.526 4563.8 951.364 4584.7 944.205C5193.97 735.589 5936.4 1247.41 6428.68 1666.64" stroke="#4A3AFF" stroke-width="5" stroke-miterlimit="10"/>
<path d="M81.4316 1705.36C625.906 1374.59 1222.43 1226.37 1723.51 1138.11C1911.01 1105.08 2035.65 1162.61 2167.06 1290.87C2261.57 1383.03 2345.95 1520.11 2439.36 1692.87C2749.27 2265.8 2864.79 2712.29 3134.54 2720.37C3617.8 2734.83 3676.89 1265.84 4475.9 907.952C4496.27 898.835 4517.04 890.196 4538.3 882.543C5155.72 660.663 5918.98 1182.21 6424.9 1608.45" stroke="#4A3AFF" stroke-width="5" stroke-miterlimit="10"/>
<path d="M54.9551 1651.05C568.392 1331.8 1172.34 1036.77 1698.42 1140.48C1888.19 1177.9 2023.51 1225.35 2153.37 1362.31C2247.07 1461.05 2329.14 1594.05 2414.31 1751.34C2700.75 2280.05 2821.79 2730.59 3089.16 2734.42C3575.01 2741.4 3621.86 1225.08 4428.4 847.805C4449.12 838.129 4470.25 829.078 4491.91 820.899C5117.97 587.038 5901.67 1117.03 6421.17 1550.34" stroke="#4A3AFF" stroke-width="5" stroke-miterlimit="10"/>
<path d="M28.4775 1596.75C510.796 1289.13 1131.4 984.177 1673.32 1142.9C1865.55 1199.21 2011.33 1288.13 2139.68 1433.78C2232.54 1539.1 2312.34 1668.05 2389.27 1809.84C2652.22 2294.35 2778.79 2750.04 3043.77 2748.54C3532.21 2745.78 3566.19 1183.15 4380.93 787.705C4401.94 777.436 4423.46 767.963 4445.5 759.285C5079.6 511.601 5884.31 1051.85 6417.33 1492.22" stroke="#4A3AFF" stroke-width="5" stroke-miterlimit="10"/>
<path d="M2 1542.44C453.232 1246.47 1093.66 931.912 1648.21 1145.33C2484.19 1467.12 2556.52 2770.22 2998.4 2762.65C3502.13 2754.02 3512.43 1058.77 4399.11 697.673C5041.21 436.182 5867.02 986.679 6413.55 1434.14" stroke="#4A3AFF" stroke-width="5" stroke-miterlimit="10"/>
</svg>